<?xml version="1.0" encoding="UTF-8" standalone="no"?>
<svg
   xmlns:osb="http://www.openswatchbook.org/uri/2009/osb"
   xmlns:dc="http://purl.org/dc/elements/1.1/"
   xmlns:cc="http://creativecommons.org/ns#"
   xmlns:rdf="http://www.w3.org/1999/02/22-rdf-syntax-ns#"
   xmlns:svg="http://www.w3.org/2000/svg"
   xmlns="http://www.w3.org/2000/svg"
   xml:space="preserve"
   enable-background="new 0 0 512 512"
   viewBox="0 0 24.078993 24.024132"
   height="24.024132"
   width="24.078993"
   y="0px"
   x="0px"
   id="Layer_1"
   version="1.1"><metadata
     id="metadata7468"><rdf:RDF><cc:Work
         rdf:about=""><dc:format>image/svg+xml</dc:format><dc:type
           rdf:resource="http://purl.org/dc/dcmitype/StillImage" /><dc:title></dc:title></cc:Work></rdf:RDF></metadata><defs
     id="defs7466"><linearGradient
       id="linearGradient5646"
       osb:paint="solid"><stop
         style="stop-color:#ffffff;stop-opacity:1;"
         offset="0"
         id="stop5648" /></linearGradient></defs><g
     style="fill:#730a0a;fill-opacity:1"
     id="g20359"
     transform="translate(-0.01536089,-0.01536092)" /><g
     id="layer2"
     style="display:inline"
     transform="translate(-0.01536089,-0.01536092)"><path
       style="fill:none;fill-rule:evenodd;stroke:#0f0f0f;stroke-width:1px;stroke-linecap:butt;stroke-linejoin:miter;stroke-opacity:1"
       d="m 3.7028571,7.9268571 c 0.045714,0 0.091888,0.00646 0.1371429,0 0.020239,-0.00289 0.035875,-0.019836 0.054857,-0.027429 0.026844,-0.010738 0.054857,-0.018286 0.082286,-0.027429 0.027428,-0.00914 0.053767,-0.022675 0.082286,-0.027429 0.027055,-0.00451 0.055069,0.0034 0.082286,0 0.04626,-0.00578 0.091275,-0.019089 0.1371428,-0.027429 0.1389867,-0.02527 0.3012497,-0.050418 0.4388572,-0.054857 0.1919002,-0.00619 0.3841223,0.00685 0.576,0 0.3203178,-0.01144 0.639921,-0.038011 0.96,-0.054857 0.3747841,-0.019725 0.7497143,-0.036571 1.1245714,-0.054857 0.3748572,-0.018286 0.74937,-0.046132 1.1245714,-0.054857 0.4113174,-0.00957 0.8229544,0.00894 1.2342858,0 0.4300014,-0.00935 0.8591464,-0.045302 1.2891434,-0.054857 0.393046,-0.00873 0.786285,0 1.179428,0 0.301715,0 0.603429,0 0.905143,0 1.033143,0 2.066286,0 3.099429,0"
       id="path4173" /><g
       id="g5670"><rect
         ry="0"
         y="0.30319247"
         x="0.30319244"
         height="23.448469"
         width="23.50333"
         id="rect4179"
         style="color:#000000;clip-rule:nonzero;display:inline;overflow:visible;visibility:visible;opacity:1;isolation:auto;mix-blend-mode:normal;color-interpolation:sRGB;color-interpolation-filters:linearRGB;solid-color:#000000;solid-opacity:1;fill:#0f0f0f;fill-opacity:1;fill-rule:nonzero;stroke:#0f0f0f;stroke-width:0.57566309;stroke-linecap:butt;stroke-linejoin:miter;stroke-miterlimit:4;stroke-dasharray:none;stroke-dashoffset:0;stroke-opacity:1;color-rendering:auto;image-rendering:auto;shape-rendering:auto;text-rendering:auto;enable-background:accumulate" /></g><polygon
       style="fill:#ffffff;fill-opacity:1"
       points="154.188,176.812 233.375,256 154.188,335.188 176.812,357.812 256,278.625 335.188,357.812 357.812,335.188 278.625,256 357.812,176.812 335.188,154.188 256,233.375 176.812,154.188 "
       id="polygon7460"
       transform="matrix(0.1178643,0,0,0.1178643,-18.134403,-18.186974)" /></g></svg>